<?xml version="1.0" encoding="utf-8"?>
<!-- Generator: Adobe Illustrator 19.0.0, SVG Export Plug-In . SVG Version: 6.00 Build 0)  -->
<svg version="1.1" id="Warstwa_1" xmlns="http://www.w3.org/2000/svg" xmlns:xlink="http://www.w3.org/1999/xlink" x="0px" y="0px"
	 viewBox="0 0 841.9 595.3" style="enable-background:new 0 0 841.9 595.3;" xml:space="preserve">
<style type="text/css">
	.st0{fill:#FFFFFF;}
</style>
<g>
	<path class="st0" d="M348.6,246.3c1.6,15.7,3.9,31.4,4.5,47.1c1.7,38.4,2.7,76.9,3.8,115.3c0.1,5,1.1,6.7,6.8,6
		c16.9-2.2,33.9-3.7,50.9-5.3c4.6-0.4,5.8-1.8,3.6-6.2c-13.7-27.4-18.1-57-19.9-87.2c-1.1-17.9-2.4-35.8-2.1-53.6
		c0.5-29.8,1.9-59.7,13.1-88c3.1-7.8,6.7-15.7,11.8-22.2c5.3-6.8,12.3-12.5,19.3-17.8c3.3-2.5,5-4.7,5.1-8.9
		c0.2-12.1,0.7-24.3,1.2-36.4c0.1-2.1,0.7-4.1,1.1-6.2c0.6-0.1,1.1-0.1,1.7-0.2c0.9,2.1,2.1,4.2,2.6,6.4c1.8,9.9,3.6,19.8,5.1,29.8
		c0.8,5.5,2.2,8.4,9.1,8.4c21.6,0.1,35.4,13.4,46.7,30.1c15.9,23.5,22.9,50.5,28.1,77.8c5.9,30.6,9,61.5,7.4,92.7
		c-1.2,23.7-4.3,47.1-13.2,69.4c-1.8,4.5-0.5,6.1,4.1,6c20.8-0.5,41.6-0.8,62.3-1.4c2.6-0.1,5.1-1.5,7.7-1.8c1.6-0.2,4.1,0,4.8,1
		c0.8,1.1,0.7,4.3-0.2,4.9c-3.3,2.6-6.9,5.7-10.8,6.4c-14.1,2.6-28.4,4.6-42.7,6.3c-11,1.3-22.2,1.6-33.2,2.9
		c-3.2,0.4-6.3,2.5-9,4.5c-7.8,5.5-14.9,12.4-23.3,16.9c-15.1,8.2-29.6,5-39.8-8.9c-4.6-6.4-9.8-7-16.4-6.5
		c-18,1.3-36.1,2.4-54.1,3.6c-7.2,0.5-14.4,1-21.5,1.3c-4.5,0.2-5.2,2.8-5.2,6.6c-0.1,3.5,2.2,9-3.6,9.6c-5.2,0.5-5.2-4.9-5.8-8.6
		c-0.8-4.9-3.2-6-8.1-5.6c-27.9,2.1-55.8,3.7-83.7,5.5c-3.6,0.2-7.3,0.6-10.9,0.9c-0.3-0.6-0.6-1.2-0.8-1.9c2.2-1.2,4.3-3,6.7-3.5
		c18-4.2,36-8.4,54.1-12.1c10.7-2.2,21.5-3.8,32.3-5c5.6-0.6,7.3-2.8,7-8.3c-1.5-30-3.6-60-3.7-90c-0.1-23.6,2.5-47.2,3.9-70.8
		c0.1-1.1,0.8-2.1,1.3-3.1C347.3,246.2,348,246.3,348.6,246.3z M463.3,400.2c-0.4,0.6-0.8,1.2-1.3,1.7c2.1,1.2,4.3,3.5,6.4,3.5
		c12.7-0.3,25.4-1.4,38.1-1.8c4.1-0.1,6.8-1.6,7.8-5.5c3.4-12.9,7.6-25.6,9.7-38.7c3.9-24.9,2.6-50,0.3-75.1
		c-2.7-30.3-6.3-60.6-15.6-89.6c-4.2-13.3-11.4-25.9-18.4-38.1c-4.4-7.7-11.4-13.7-20.6-15.5c-7.8-1.5-9.9,0.7-8.9,8.4
		c1.7,14.3,3.6,28.5,5,42.8c3.8,39.9,7.4,79.8,11,119.7c2.3,25.2,4.3,50.4,6.7,75.5c0.6,5.9,0,11.3-5.5,14.6
		C472.9,405.2,467.9,403.9,463.3,400.2z M458.5,385.5c0.3,0,0.6-0.1,0.9-0.1c-4.4-79.1-8.9-158.2-13.4-238.8
		c-2.9,2.1-4.6,3.1-6.1,4.3c-8,6.7-12.8,15.5-16.2,25.1c-7.9,22.2-10.5,45.3-10.9,68.5c-0.4,23.6,0.1,47.3,1.1,71
		c1,21.1,2.8,42.3,5.1,63.3c1,8.7,4,17.2,6.7,25.6c2.2,6.8,7.6,3,11.6,2.5c4.2-0.6,2.3-3.9,1.7-6.4c-2.7-12.4-5.8-24.8-8.2-37.3
		c-4.7-24.9-8-49.9-8-75.3c0-6.6,3.9-11,9.6-11.6c5.6-0.6,11.1,3.3,12,9.3c2.3,15,4.3,30.1,6.4,45.1
		C453.5,348.9,456,367.2,458.5,385.5z M475.8,425.5c4.9,5.3,10,5.1,14.1,0C485.5,425.5,480.9,425.5,475.8,425.5z"/>
	<path class="st0" d="M203.3,395c5.1,10.3,9.7,19.4,14.1,28.6c10.9,22.4,22.4,44.5,32.2,67.3c3.9,9,5.5,19.5,5.7,29.4
		c0.5,17.3-12.4,29.8-29.7,29.4c-29.6-0.6-56.8-10-80.5-27.5c-12.6-9.3-23.4-21.1-34.7-32.2c-3-2.9-4.6-7.3-6.8-11
		c0.7-0.5,1.4-1,2-1.5c1.5,1.4,3.1,2.6,4.4,4.1c29.6,32.3,66.2,51.6,109.4,58.6c16.1,2.6,26-8,20.9-23.8
		c-4.1-12.8-9.8-25.4-16.5-37.1c-21.1-37.2-42.9-74.1-60.3-113.3c-16.6-37.3-32.4-74.8-39.9-115.2c-2.8-14.9-3.7-30.2-5.1-45.3
		c-0.7-7.6,3.1-12.5,9.1-13.3c6.7-0.9,11.4,3,13,10.9c4.5,22.6,8.2,45.3,13.8,67.6c8.4,33.8,22.1,65.9,36.8,97.4
		c1.4,3,5.5,5.7,8.9,6.7c11.4,3.3,23,2.5,33.9-2.2c43.9-19.1,70.4-52.5,78.9-99.5c7.4-40.8-4-78.4-23.3-113.8
		c-16.4-30.1-39.6-54-70.2-70.1c-48.8-25.8-108.2-7.8-135.2,41.1c-12.3,22.3-19.3,46.4-20.1,71.8c-0.7,21.2-0.3,42.3-0.4,63.5
		c0,1.3-0.4,2.7-0.7,4c-0.7,0.1-1.4,0.3-2.1,0.4c-1.2-5.1-3-10.1-3.4-15.3c-1.6-21.7-4.7-43.5-3.6-65.1
		C56.6,141.4,81.8,82,147.9,62.9c28.6-8.3,56.3-4.4,82.3,8c50.8,24.2,82.5,65.2,100,118.1c6.9,20.9,11.5,42,10.7,64.2
		c-2.1,61-35.8,112.5-91.8,135.6c-12.7,5.2-26,7.7-39.9,6.2C207.8,394.9,206.4,395,203.3,395z"/>
	<path class="st0" d="M709.7,362.5c11.7,0.1,21-4.9,28-13.8c1.3-1.6,1.2-4.3,1.6-6.5c1-5.9,1.5-11.9,2.9-17.6
		c2.8-11.8,14.5-19.5,25.6-17.2c13.7,2.9,20.6,18.9,13.3,33c-3.4,6.5-9.1,11.9-14,18c9,0.1,16.4-5.4,24.1-9.9
		c4.9,10.2,3.2,16.7-6.5,19.8c-6.2,2-13.2,2-19.9,2.1c-5.1,0-6.7,1.4-6.5,6.7c0.4,12.6-0.4,25.1-5.9,36.8c-0.7,1.5-1.6,2.9-2.4,4.3
		c-3.8,7.2-10.6,8.7-17.4,7.3c-6.3-1.3-7.8-7.9-9.3-13.5c-2.8-10.7,0.5-20.7,3.9-30.7c0.7-2.1,1.5-4.1,2.1-5.7
		c-8.1,0-15.7-0.1-23.3,0c-4.5,0.1-4,3.6-4.4,6.7c-1.5,11.3-2.5,22.8-5,33.9c-1,4.4-4.6,8.7-8.1,11.9c-7.2,6.7-15.9,4.1-19.8-4.9
		c-5.5-12.9-2.8-25.3,2.2-37.6c0.9-2.2,1.7-4.5,2.3-6.1c-7.6,1.4-15.6,4.9-22.7,3.6c-9.6-1.7-9-11.9-10.2-20
		c-4.6,5.8-8.7,11.9-13.7,17c-14,14.5-35.3,15.1-48,1.7c-7.7-8.1-10.3-18.6-9.4-29.2c2.6-32.3,16-59.1,44.1-76.6
		c7.4-4.6,16.7-7.8,25.3-8.2c7.1-0.4,15.1,3.3,21.6,7c2.9,1.7,4.6,8.1,4.2,12.2c-1.3,15.7-3.8,31.3-5.7,47c-1,7.7-2.3,15.5-2.4,23.2
		c-0.1,7.6,2.7,8.8,9.1,4.9c4.7-2.9,9.5-5.9,13.7-9.4c1.8-1.5,2.9-4.2,3.4-6.6c1.9-9,1.9-18.4,8.2-26.1c5.6-6.9,12.9-8.4,21-7.1
		c7.8,1.2,12.4,6.1,14.3,13.6c3.4,13.6-1.7,24.1-11.9,32.8C712.7,360.4,711.1,361.4,709.7,362.5z M589,352.1
		c1.3,8.5,0.6,17.6,9.9,21.5c9.4,3.9,16.9-0.9,23.2-7.2c7.4-7.4,12.5-16.5,14.6-26.7c3.6-17.7,6.6-35.5,9.8-53.2
		c0.7-4-1.2-6.4-5.1-5.4c-6.6,1.8-14.1,3-19.3,7C601.2,304.1,592.5,327.1,589,352.1z M753.8,350.5c0.9,0.3,1.7,0.6,2.6,0.9
		c7.8-4.8,11.8-12.3,12.4-21.4c0.2-2.8-2.5-5.8-3.8-8.7c-2.8,2-7.3,3.5-7.9,5.9C755.2,334.8,754.8,342.7,753.8,350.5z M697.2,355.7
		c0.9,0.3,1.9,0.6,2.8,0.9c7.2-5.1,11.5-12.1,12.2-21.2c0.3-3.7,0.6-8-4.3-8.9c-4.7-0.9-7,2.9-7.7,6.4
		C698.6,340.3,698.1,348,697.2,355.7z M741.7,379.4c-0.6-0.1-1.2-0.1-1.9-0.2c-1.2,7.6-2.7,15.2-3.4,22.8c-0.2,2.1,2.4,4.5,3.7,6.7
		c0.9-2.3,2.7-4.5,2.6-6.8C742.8,394.5,742.1,386.9,741.7,379.4z M685,383.4c-6.8,14.9-7.1,27.3-0.3,31.4
		C688,404.5,685,394.6,685,383.4z"/>
	<path class="st0" d="M381.4,244.8c0.5,6.5,1.4,13,1.5,19.5c0.2,33.5,0.2,67,0.3,100.4c0.1,10.7,0.6,21.4,0.7,32
		c0,2.3-1.4,4.5-2.1,6.8c-1.2-2.1-3.3-4.1-3.6-6.4c-1.3-9.1-2.5-18.3-2.9-27.6c-1.6-39.4-1.6-78.9,2.2-118.2
		c0.2-2.4,1.1-4.7,1.7-7.1C379.9,244.5,380.6,244.7,381.4,244.8z"/>
	<path class="st0" d="M372.7,84.2c0,26.3,0,50.4,0,74.6c0,3.7-0.2,7.4-0.8,11c-0.3,1.4-2.1,2.6-3.1,3.8c-1.2-1.2-2.4-2.4-3.4-3.8
		c-0.4-0.6-0.3-1.6-0.3-2.4c0.9-23.4,1.6-46.8,2.8-70.1C368.1,93.4,370.7,89.5,372.7,84.2z"/>
	<path class="st0" d="M329.2,81c5.7,6.9,15,89.4,11.5,97.3C336.9,174.6,326.9,91.9,329.2,81z"/>
</g>
</svg>
